<mxfile host="app.diagrams.net" modified="2022-05-16T17:03:44.128Z" agent="5.0 (Windows NT 10.0; Win64; x64) AppleWebKit/537.36 (KHTML, like Gecko) Chrome/100.0.4896.75 Safari/537.36" etag="6XAJAMr4Gh4G9nsGG4Tu" version="16.2.4" type="github">
  <diagram id="FVqlLLhYCDdEMdyAEdLD" name="Page-1">
    <mxGraphModel dx="716" dy="399" grid="1" gridSize="10" guides="1" tooltips="1" connect="1" arrows="1" fold="1" page="1" pageScale="1" pageWidth="827" pageHeight="1169" math="0" shadow="0">
      <root>
        <mxCell id="0" />
        <mxCell id="1" parent="0" />
        <mxCell id="QkjTdd4gc4LhVuAJBwDr-32" value="" style="rounded=1;whiteSpace=wrap;html=1;" vertex="1" parent="1">
          <mxGeometry x="80" y="160" width="140" height="290" as="geometry" />
        </mxCell>
        <mxCell id="QkjTdd4gc4LhVuAJBwDr-23" style="edgeStyle=orthogonalEdgeStyle;rounded=0;orthogonalLoop=1;jettySize=auto;html=1;exitX=0.5;exitY=0;exitDx=0;exitDy=0;entryX=0.5;entryY=1;entryDx=0;entryDy=0;" edge="1" parent="1" source="QkjTdd4gc4LhVuAJBwDr-1" target="QkjTdd4gc4LhVuAJBwDr-2">
          <mxGeometry relative="1" as="geometry" />
        </mxCell>
        <mxCell id="QkjTdd4gc4LhVuAJBwDr-1" value="Multi-Head Attention" style="rounded=1;whiteSpace=wrap;html=1;" vertex="1" parent="1">
          <mxGeometry x="110" y="350" width="100" height="50" as="geometry" />
        </mxCell>
        <mxCell id="QkjTdd4gc4LhVuAJBwDr-22" style="edgeStyle=orthogonalEdgeStyle;rounded=0;orthogonalLoop=1;jettySize=auto;html=1;exitX=0.5;exitY=0;exitDx=0;exitDy=0;entryX=0.5;entryY=1;entryDx=0;entryDy=0;" edge="1" parent="1" source="QkjTdd4gc4LhVuAJBwDr-2" target="QkjTdd4gc4LhVuAJBwDr-3">
          <mxGeometry relative="1" as="geometry" />
        </mxCell>
        <mxCell id="QkjTdd4gc4LhVuAJBwDr-2" value="Add &amp;amp; Norm" style="rounded=1;whiteSpace=wrap;html=1;" vertex="1" parent="1">
          <mxGeometry x="110" y="300" width="100" height="30" as="geometry" />
        </mxCell>
        <mxCell id="QkjTdd4gc4LhVuAJBwDr-24" style="edgeStyle=orthogonalEdgeStyle;rounded=0;orthogonalLoop=1;jettySize=auto;html=1;exitX=0.5;exitY=0;exitDx=0;exitDy=0;entryX=0.5;entryY=1;entryDx=0;entryDy=0;" edge="1" parent="1" source="QkjTdd4gc4LhVuAJBwDr-3" target="QkjTdd4gc4LhVuAJBwDr-4">
          <mxGeometry relative="1" as="geometry" />
        </mxCell>
        <mxCell id="QkjTdd4gc4LhVuAJBwDr-3" value="Feed Forward" style="rounded=1;whiteSpace=wrap;html=1;" vertex="1" parent="1">
          <mxGeometry x="110" y="220" width="100" height="50" as="geometry" />
        </mxCell>
        <mxCell id="QkjTdd4gc4LhVuAJBwDr-4" value="Add &amp;amp; Norm" style="rounded=1;whiteSpace=wrap;html=1;" vertex="1" parent="1">
          <mxGeometry x="110" y="170" width="100" height="30" as="geometry" />
        </mxCell>
        <mxCell id="QkjTdd4gc4LhVuAJBwDr-11" style="edgeStyle=orthogonalEdgeStyle;rounded=0;orthogonalLoop=1;jettySize=auto;html=1;exitX=0.5;exitY=0;exitDx=0;exitDy=0;entryX=0.5;entryY=1;entryDx=0;entryDy=0;" edge="1" parent="1" source="QkjTdd4gc4LhVuAJBwDr-5" target="QkjTdd4gc4LhVuAJBwDr-6">
          <mxGeometry relative="1" as="geometry" />
        </mxCell>
        <mxCell id="QkjTdd4gc4LhVuAJBwDr-5" value="Input Embedding" style="rounded=1;whiteSpace=wrap;html=1;" vertex="1" parent="1">
          <mxGeometry x="110" y="510" width="100" height="40" as="geometry" />
        </mxCell>
        <mxCell id="QkjTdd4gc4LhVuAJBwDr-19" style="edgeStyle=orthogonalEdgeStyle;rounded=0;orthogonalLoop=1;jettySize=auto;html=1;exitX=0.5;exitY=0;exitDx=0;exitDy=0;" edge="1" parent="1" source="QkjTdd4gc4LhVuAJBwDr-6">
          <mxGeometry relative="1" as="geometry">
            <mxPoint x="159.859649122807" y="420" as="targetPoint" />
          </mxGeometry>
        </mxCell>
        <mxCell id="QkjTdd4gc4LhVuAJBwDr-6" value="" style="shape=orEllipse;perimeter=ellipsePerimeter;whiteSpace=wrap;html=1;backgroundOutline=1;" vertex="1" parent="1">
          <mxGeometry x="150" y="470" width="20" height="20" as="geometry" />
        </mxCell>
        <mxCell id="QkjTdd4gc4LhVuAJBwDr-20" style="edgeStyle=orthogonalEdgeStyle;rounded=0;orthogonalLoop=1;jettySize=auto;html=1;exitX=1;exitY=0.5;exitDx=0;exitDy=0;entryX=0;entryY=0.5;entryDx=0;entryDy=0;" edge="1" parent="1" source="QkjTdd4gc4LhVuAJBwDr-7" target="QkjTdd4gc4LhVuAJBwDr-6">
          <mxGeometry relative="1" as="geometry" />
        </mxCell>
        <mxCell id="QkjTdd4gc4LhVuAJBwDr-7" value="Positional Encoding" style="rounded=1;whiteSpace=wrap;html=1;" vertex="1" parent="1">
          <mxGeometry x="60" y="460" width="70" height="40" as="geometry" />
        </mxCell>
        <mxCell id="QkjTdd4gc4LhVuAJBwDr-14" value="" style="edgeStyle=segmentEdgeStyle;endArrow=classic;html=1;rounded=0;entryX=0.214;entryY=1.014;entryDx=0;entryDy=0;entryPerimeter=0;" edge="1" parent="1" target="QkjTdd4gc4LhVuAJBwDr-1">
          <mxGeometry width="50" height="50" relative="1" as="geometry">
            <mxPoint x="160" y="420" as="sourcePoint" />
            <mxPoint x="270" y="440" as="targetPoint" />
          </mxGeometry>
        </mxCell>
        <mxCell id="QkjTdd4gc4LhVuAJBwDr-15" value="" style="edgeStyle=segmentEdgeStyle;endArrow=classic;html=1;rounded=0;entryX=0.5;entryY=1;entryDx=0;entryDy=0;" edge="1" parent="1" target="QkjTdd4gc4LhVuAJBwDr-1">
          <mxGeometry width="50" height="50" relative="1" as="geometry">
            <mxPoint x="160" y="420" as="sourcePoint" />
            <mxPoint x="270" y="440" as="targetPoint" />
          </mxGeometry>
        </mxCell>
        <mxCell id="QkjTdd4gc4LhVuAJBwDr-16" value="" style="edgeStyle=segmentEdgeStyle;endArrow=classic;html=1;rounded=0;entryX=0.8;entryY=1;entryDx=0;entryDy=0;entryPerimeter=0;" edge="1" parent="1" target="QkjTdd4gc4LhVuAJBwDr-1">
          <mxGeometry width="50" height="50" relative="1" as="geometry">
            <mxPoint x="160" y="420" as="sourcePoint" />
            <mxPoint x="220" y="410" as="targetPoint" />
          </mxGeometry>
        </mxCell>
        <mxCell id="QkjTdd4gc4LhVuAJBwDr-21" value="" style="edgeStyle=elbowEdgeStyle;elbow=horizontal;endArrow=classic;html=1;rounded=0;entryX=-0.021;entryY=0.514;entryDx=0;entryDy=0;entryPerimeter=0;" edge="1" parent="1" target="QkjTdd4gc4LhVuAJBwDr-2">
          <mxGeometry width="50" height="50" relative="1" as="geometry">
            <mxPoint x="160" y="440" as="sourcePoint" />
            <mxPoint x="70" y="360" as="targetPoint" />
            <Array as="points">
              <mxPoint x="90" y="400" />
            </Array>
          </mxGeometry>
        </mxCell>
        <mxCell id="QkjTdd4gc4LhVuAJBwDr-25" value="" style="edgeStyle=elbowEdgeStyle;elbow=horizontal;endArrow=classic;html=1;rounded=0;entryX=0;entryY=0.5;entryDx=0;entryDy=0;" edge="1" parent="1" target="QkjTdd4gc4LhVuAJBwDr-4">
          <mxGeometry width="50" height="50" relative="1" as="geometry">
            <mxPoint x="160" y="290" as="sourcePoint" />
            <mxPoint x="60" y="190" as="targetPoint" />
            <Array as="points">
              <mxPoint x="90" y="200" />
            </Array>
          </mxGeometry>
        </mxCell>
        <mxCell id="QkjTdd4gc4LhVuAJBwDr-28" style="edgeStyle=orthogonalEdgeStyle;rounded=0;orthogonalLoop=1;jettySize=auto;html=1;exitX=0.5;exitY=0;exitDx=0;exitDy=0;entryX=0.5;entryY=1;entryDx=0;entryDy=0;" edge="1" parent="1" source="QkjTdd4gc4LhVuAJBwDr-26" target="QkjTdd4gc4LhVuAJBwDr-27">
          <mxGeometry relative="1" as="geometry" />
        </mxCell>
        <mxCell id="QkjTdd4gc4LhVuAJBwDr-26" value="Masked Multi-Head Attention" style="rounded=1;whiteSpace=wrap;html=1;" vertex="1" parent="1">
          <mxGeometry x="270" y="350" width="100" height="50" as="geometry" />
        </mxCell>
        <mxCell id="QkjTdd4gc4LhVuAJBwDr-27" value="Add &amp;amp; Norm" style="rounded=1;whiteSpace=wrap;html=1;" vertex="1" parent="1">
          <mxGeometry x="270" y="300" width="100" height="30" as="geometry" />
        </mxCell>
        <mxCell id="QkjTdd4gc4LhVuAJBwDr-37" style="edgeStyle=orthogonalEdgeStyle;rounded=0;orthogonalLoop=1;jettySize=auto;html=1;exitX=0;exitY=0.5;exitDx=0;exitDy=0;entryX=1;entryY=0.5;entryDx=0;entryDy=0;" edge="1" parent="1" source="QkjTdd4gc4LhVuAJBwDr-33" target="QkjTdd4gc4LhVuAJBwDr-34">
          <mxGeometry relative="1" as="geometry" />
        </mxCell>
        <mxCell id="QkjTdd4gc4LhVuAJBwDr-33" value="Positional Encoding" style="rounded=1;whiteSpace=wrap;html=1;" vertex="1" parent="1">
          <mxGeometry x="360" y="460" width="70" height="40" as="geometry" />
        </mxCell>
        <mxCell id="QkjTdd4gc4LhVuAJBwDr-38" style="edgeStyle=orthogonalEdgeStyle;rounded=0;orthogonalLoop=1;jettySize=auto;html=1;exitX=0.5;exitY=0;exitDx=0;exitDy=0;" edge="1" parent="1" source="QkjTdd4gc4LhVuAJBwDr-34">
          <mxGeometry relative="1" as="geometry">
            <mxPoint x="319.8888888888889" y="420" as="targetPoint" />
          </mxGeometry>
        </mxCell>
        <mxCell id="QkjTdd4gc4LhVuAJBwDr-34" value="" style="shape=orEllipse;perimeter=ellipsePerimeter;whiteSpace=wrap;html=1;backgroundOutline=1;" vertex="1" parent="1">
          <mxGeometry x="310" y="470" width="20" height="20" as="geometry" />
        </mxCell>
        <mxCell id="QkjTdd4gc4LhVuAJBwDr-36" style="edgeStyle=orthogonalEdgeStyle;rounded=0;orthogonalLoop=1;jettySize=auto;html=1;exitX=0.5;exitY=0;exitDx=0;exitDy=0;entryX=0.5;entryY=1;entryDx=0;entryDy=0;" edge="1" parent="1" source="QkjTdd4gc4LhVuAJBwDr-35" target="QkjTdd4gc4LhVuAJBwDr-34">
          <mxGeometry relative="1" as="geometry" />
        </mxCell>
        <mxCell id="QkjTdd4gc4LhVuAJBwDr-35" value="Output Embedding" style="rounded=1;whiteSpace=wrap;html=1;" vertex="1" parent="1">
          <mxGeometry x="265" y="510" width="110" height="40" as="geometry" />
        </mxCell>
        <mxCell id="QkjTdd4gc4LhVuAJBwDr-39" value="" style="edgeStyle=segmentEdgeStyle;endArrow=classic;html=1;rounded=0;entryX=0.173;entryY=1.003;entryDx=0;entryDy=0;entryPerimeter=0;" edge="1" parent="1" target="QkjTdd4gc4LhVuAJBwDr-26">
          <mxGeometry width="50" height="50" relative="1" as="geometry">
            <mxPoint x="320" y="420" as="sourcePoint" />
            <mxPoint x="180" y="370" as="targetPoint" />
            <Array as="points">
              <mxPoint x="287" y="420" />
            </Array>
          </mxGeometry>
        </mxCell>
        <mxCell id="QkjTdd4gc4LhVuAJBwDr-40" value="" style="edgeStyle=segmentEdgeStyle;endArrow=classic;html=1;rounded=0;entryX=0.5;entryY=1;entryDx=0;entryDy=0;" edge="1" parent="1" target="QkjTdd4gc4LhVuAJBwDr-26">
          <mxGeometry width="50" height="50" relative="1" as="geometry">
            <mxPoint x="320" y="420" as="sourcePoint" />
            <mxPoint x="270" y="370" as="targetPoint" />
          </mxGeometry>
        </mxCell>
        <mxCell id="QkjTdd4gc4LhVuAJBwDr-41" value="" style="edgeStyle=segmentEdgeStyle;endArrow=classic;html=1;rounded=0;entryX=0.8;entryY=1;entryDx=0;entryDy=0;entryPerimeter=0;" edge="1" parent="1" target="QkjTdd4gc4LhVuAJBwDr-26">
          <mxGeometry width="50" height="50" relative="1" as="geometry">
            <mxPoint x="320" y="420" as="sourcePoint" />
            <mxPoint x="320" y="350" as="targetPoint" />
          </mxGeometry>
        </mxCell>
        <mxCell id="QkjTdd4gc4LhVuAJBwDr-42" value="" style="edgeStyle=elbowEdgeStyle;elbow=horizontal;endArrow=classic;html=1;rounded=0;entryX=1;entryY=0.5;entryDx=0;entryDy=0;" edge="1" parent="1" target="QkjTdd4gc4LhVuAJBwDr-27">
          <mxGeometry width="50" height="50" relative="1" as="geometry">
            <mxPoint x="320" y="440" as="sourcePoint" />
            <mxPoint x="460" y="310" as="targetPoint" />
            <Array as="points">
              <mxPoint x="390" y="340" />
            </Array>
          </mxGeometry>
        </mxCell>
        <mxCell id="QkjTdd4gc4LhVuAJBwDr-45" style="edgeStyle=orthogonalEdgeStyle;rounded=0;orthogonalLoop=1;jettySize=auto;html=1;exitX=0.5;exitY=0;exitDx=0;exitDy=0;entryX=0.5;entryY=1;entryDx=0;entryDy=0;" edge="1" parent="1" source="QkjTdd4gc4LhVuAJBwDr-43" target="QkjTdd4gc4LhVuAJBwDr-44">
          <mxGeometry relative="1" as="geometry" />
        </mxCell>
        <mxCell id="QkjTdd4gc4LhVuAJBwDr-43" value="Multi-Head Attention" style="rounded=1;whiteSpace=wrap;html=1;" vertex="1" parent="1">
          <mxGeometry x="270" y="200" width="100" height="50" as="geometry" />
        </mxCell>
        <mxCell id="QkjTdd4gc4LhVuAJBwDr-44" value="Add &amp;amp; Norm" style="rounded=1;whiteSpace=wrap;html=1;" vertex="1" parent="1">
          <mxGeometry x="270" y="150" width="100" height="30" as="geometry" />
        </mxCell>
        <mxCell id="QkjTdd4gc4LhVuAJBwDr-48" value="" style="shape=partialRectangle;whiteSpace=wrap;html=1;bottom=0;right=0;fillColor=none;" vertex="1" parent="1">
          <mxGeometry x="160" y="150" width="80" height="20" as="geometry" />
        </mxCell>
      </root>
    </mxGraphModel>
  </diagram>
</mxfile>
